<?xml version="1.0" standalone="no"?><!DOCTYPE svg PUBLIC "-//W3C//DTD SVG 1.1//EN" "http://www.w3.org/Graphics/SVG/1.1/DTD/svg11.dtd"><svg class="icon" width="200px" height="200.00px" viewBox="0 0 1024 1024" version="1.1" xmlns="http://www.w3.org/2000/svg"><path fill="#467ff7" d="M784.038674 667.665965V982.081871l-268.325925-97.918752L263.914542 982.081871V667.665965A366.547088 366.547088 0 0 1 156.194932 407.646815C156.194932 204.558472 320.853333 39.922027 523.976608 39.922027S891.758285 204.558472 891.758285 407.646815A366.547088 366.547088 0 0 1 784.038674 667.665965zM523.976608 93.230908c-173.670799 0-314.465809 140.76906-314.465809 314.415907S350.305809 722.059727 523.976608 722.059727s314.465809-140.765068 314.465809-314.412912S697.647407 93.230908 523.976608 93.230908zM693.665185 516.13193a10.585326 10.585326 0 0 1-10.24 9.271891H358.529747a10.585326 10.585326 0 0 1-10.24-9.271891l-28.54425-255.40117c-0.77848-7.021287 3.443275-12.753092 9.44156-12.753091h0.499025l89.844522 106.625746 89.844523-106.625746h0.279454a5.43239 5.43239 0 0 1 4.53115-2.430254h17.406004a5.43239 5.43239 0 0 1 4.53115 2.430254h0.239532l89.844523 106.625746 89.435321-106.14269c4.411384 1.508055 7.215906 6.438425 6.567174 12.270035zM368.380507 556.992125h309.016452a10.886737 10.886737 0 0 1 10.888733 10.878752v28.284757a10.886737 10.886737 0 0 1-10.888733 10.878752H368.380507a10.878752 10.878752 0 0 1-10.888733-10.878752v-28.284757a10.878752 10.878752 0 0 1 10.888733-10.878752z"  /></svg>