<?xml version="1.0" standalone="no"?><!DOCTYPE svg PUBLIC "-//W3C//DTD SVG 1.1//EN" "http://www.w3.org/Graphics/SVG/1.1/DTD/svg11.dtd"><svg class="icon" width="200px" height="200.00px" viewBox="0 0 1024 1024" version="1.1" xmlns="http://www.w3.org/2000/svg"><path fill="#467ff7" d="M148.29037 877.131852V141.748148a28.444444 28.444444 0 0 1 28.444445-28.444444h508.965926a28.444444 28.444444 0 0 1 28.444444 28.444444v299.045926h56.888889V141.748148a85.333333 85.333333 0 0 0-85.333333-84.859259h-509.155556a85.333333 85.333333 0 0 0-84.859259 84.859259v735.383704a85.333333 85.333333 0 0 0 84.859259 84.859259h222.72v-56.888889H176.545185a28.444444 28.444444 0 0 1-28.254815-27.97037z"  /><path fill="#467ff7" d="M875.70963 801.374815m-56.604445 0a56.604444 56.604444 0 1 0 113.208889 0 56.604444 56.604444 0 1 0-113.208889 0Z"  /><path fill="#467ff7" d="M533.333333 857.884444m-56.604444 0a56.604444 56.604444 0 1 0 113.208889 0 56.604444 56.604444 0 1 0-113.208889 0Z"  /><path fill="#467ff7" d="M657.635556 553.908148m-56.604445 0a56.604444 56.604444 0 1 0 113.208889 0 56.604444 56.604444 0 1 0-113.208889 0Z"  /><path fill="#467ff7" d="M521.481481 748.278519v-7.395556a169.718519 169.718519 0 0 1 94.814815-151.703704 80.971852 80.971852 0 0 1-7.869629-58.311111A226.133333 226.133333 0 0 0 464.592593 740.882963c0 7.300741 0 14.411852 1.042963 21.522963a84.385185 84.385185 0 0 1 47.881481-14.885926c2.56 0 5.12 0.474074 7.964444 0.758519zM838.542222 911.834074a84.574815 84.574815 0 0 1-44.183703-36.977778 168.580741 168.580741 0 0 1-207.834075 0 84.574815 84.574815 0 0 1-43.994074 37.072593 225.46963 225.46963 0 0 0 296.011852 0zM915.816296 762.785185c0.663704-7.205926 1.137778-14.506667 1.137778-21.902222a226.133333 226.133333 0 0 0-143.644444-210.488889 80.971852 80.971852 0 0 1-7.86963 58.311111 169.718519 169.718519 0 0 1 94.814815 151.703704v7.395555c2.465185 0 4.93037-0.758519 7.395555-0.758518a84.29037 84.29037 0 0 1 48.165926 15.739259z"  /><path fill="#467ff7" d="M273.825185 290.228148m-28.254815 0a28.254815 28.254815 0 1 0 56.50963 0 28.254815 28.254815 0 1 0-56.50963 0Z"  /><path fill="#467ff7" d="M333.937778 261.973333m9.386666 0l264.05926 0q9.386667 0 9.386666 9.386667l0 37.831111q0 9.386667-9.386666 9.386667l-264.05926 0q-9.386667 0-9.386666-9.386667l0-37.831111q0-9.386667 9.386666-9.386667Z"  /><path fill="#467ff7" d="M273.825185 433.398519m-28.254815 0a28.254815 28.254815 0 1 0 56.50963 0 28.254815 28.254815 0 1 0-56.50963 0Z"  /><path fill="#467ff7" d="M616.296296 433.398519a28.444444 28.444444 0 0 0-28.444444-28.444445H362.192593a28.444444 28.444444 0 0 0 0 56.888889h226.228148a28.444444 28.444444 0 0 0 27.875555-28.444444z"  /><path fill="#467ff7" d="M273.825185 576.568889m-28.254815 0a28.254815 28.254815 0 1 0 56.50963 0 28.254815 28.254815 0 1 0-56.50963 0Z"  /><path fill="#467ff7" d="M362.192593 548.314074a28.444444 28.444444 0 0 0 0 56.888889h75.188148a254.293333 254.293333 0 0 1 34.322963-56.888889z"  /><path fill="#467ff7" d="M273.825185 719.739259m-28.254815 0a28.254815 28.254815 0 1 0 56.50963 0 28.254815 28.254815 0 1 0-56.50963 0Z"  /><path fill="#467ff7" d="M416.521481 691.484444H362.192593a28.444444 28.444444 0 0 0 0 56.888889h56.888888a255.146667 255.146667 0 0 1-3.508148-40.675555c0.094815-6.068148 0.568889-10.903704 0.948148-16.213334z"  /></svg>