<?xml version="1.0" standalone="no"?><!DOCTYPE svg PUBLIC "-//W3C//DTD SVG 1.1//EN" "http://www.w3.org/Graphics/SVG/1.1/DTD/svg11.dtd"><svg class="icon" width="200px" height="200.00px" viewBox="0 0 1024 1024" version="1.1" xmlns="http://www.w3.org/2000/svg"><path d="M298.24 195.498667a28.8 28.8 0 0 0-28.757333 28.8V388.693333c0 15.914667 12.885333 28.8 28.8 28.8h130.688a28.757333 28.757333 0 0 0 24.192-11.946666l90.026666-124.629334L725.333333 412.074667a28.8 28.8 0 1 0 33.621334-46.762667l-205.525334-147.925333a28.8 28.8 0 0 0-40.149333 6.485333l-54.741333 75.776V224.298667a28.8 28.8 0 0 0-28.8-28.8H298.282667z m28.842667 164.394666V253.098667h73.898666v106.794666H327.082667z" fill="#035DFF" /><path d="M224.896 417.493333a4.096 4.096 0 0 0-3.968 5.034667l82.858667 345.258667c0.426667 1.834667 2.090667 3.114667 3.968 3.114666h408.490666c1.877333 0 3.541333-1.28 3.968-3.114666l82.858667-345.258667a4.096 4.096 0 0 0-3.968-5.034667H224.853333z m-59.989333 18.474667a61.696 61.696 0 0 1 59.989333-76.074667h574.208c39.893333 0 69.290667 37.290667 59.989333 76.074667l-82.858666 345.258667a61.696 61.696 0 0 1-59.989334 47.274666H307.754667c-28.501333 0-53.333333-19.541333-59.989334-47.274666m0 0l-82.858666-345.258667" fill="#2B2F36" /><path d="M335.232 520.234667c0-15.914667 12.885333-28.8 28.8-28.8h131.541333a28.8 28.8 0 1 1 0 57.6H364.032a28.8 28.8 0 0 1-28.8-28.8z" fill="#2B2F36" /></svg>